<?xml version="1.0" encoding="UTF-8" standalone="no"?>
<!-- Created with Inkscape (http://www.inkscape.org/) -->

<svg
   xmlns:dc="http://purl.org/dc/elements/1.1/"
   xmlns:cc="http://creativecommons.org/ns#"
   xmlns:rdf="http://www.w3.org/1999/02/22-rdf-syntax-ns#"
   xmlns:svg="http://www.w3.org/2000/svg"
   xmlns="http://www.w3.org/2000/svg"
   xmlns:xlink="http://www.w3.org/1999/xlink"
   xmlns:sodipodi="http://sodipodi.sourceforge.net/DTD/sodipodi-0.dtd"
   xmlns:inkscape="http://www.inkscape.org/namespaces/inkscape"
   width="44.925125mm"
   height="44.894646mm"
   viewBox="0 0 44.925125 44.894646"
   version="1.1"
   id="svg8"
   inkscape:version="0.92.4 5da689c313, 2019-01-14"
   sodipodi:docname="icon.svg">
  <defs
     id="defs2">
    <linearGradient
       id="linearGradient1015"
       inkscape:collect="always">
      <stop
         id="stop1019"
         offset="0"
         style="stop-color:#325c16;stop-opacity:1" />
      <stop
         id="stop1021"
         offset="1"
         style="stop-color:#63b72c;stop-opacity:1" />
    </linearGradient>
    <linearGradient
       inkscape:collect="always"
       xlink:href="#linearGradient1015"
       id="linearGradient1017"
       x1="349.13867"
       y1="264.22867"
       x2="466.78656"
       y2="181.80469"
       gradientUnits="userSpaceOnUse" />
  </defs>
  <sodipodi:namedview
     id="base"
     pagecolor="#ffffff"
     bordercolor="#666666"
     borderopacity="1.0"
     inkscape:pageopacity="0.0"
     inkscape:pageshadow="2"
     inkscape:zoom="1.4"
     inkscape:cx="49.699963"
     inkscape:cy="37.101762"
     inkscape:document-units="mm"
     inkscape:current-layer="layer1"
     showgrid="false"
     inkscape:snap-intersection-paths="true"
     inkscape:snap-midpoints="true"
     inkscape:snap-bbox="true"
     inkscape:object-nodes="true"
     inkscape:snap-smooth-nodes="true"
     inkscape:object-paths="false"
     inkscape:snap-object-midpoints="true"
     inkscape:snap-bbox-edge-midpoints="true"
     inkscape:bbox-nodes="true"
     inkscape:bbox-paths="true"
     inkscape:snap-bbox-midpoints="true"
     inkscape:window-width="1920"
     inkscape:window-height="1053"
     inkscape:window-x="0"
     inkscape:window-y="0"
     inkscape:window-maximized="1" />
  <metadata
     id="metadata5">
    <rdf:RDF>
      <cc:Work
         rdf:about="">
        <dc:format>image/svg+xml</dc:format>
        <dc:type
           rdf:resource="http://purl.org/dc/dcmitype/StillImage" />
        <dc:title></dc:title>
      </cc:Work>
    </rdf:RDF>
  </metadata>
  <g
     inkscape:label="Layer 1"
     inkscape:groupmode="layer"
     id="layer1"
     transform="translate(-92.376272,-31.399187)">
    <path
       style="fill:url(#linearGradient1017);fill-opacity:1;fill-rule:nonzero;stroke:none;stroke-width:0.99999994"
       d="m 431.95898,118.67773 c -1.67744,0.0573 -8.38671,0.85584 -8.38671,9.94336 v 10.38477 c -41.66122,2.18619 -74.38196,38.11374 -74.4336,81.72852 6.9e-4,45.24971 41.4401,68.07915 73.98828,67.61328 6.0308,-0.0863 20.15262,0.64159 20.25196,-6.44141 0.0908,-6.47462 -12.00101,-6.26873 -18.33985,-6.4043 -6.33885,-0.13557 -12.27563,-4.3246 -16.36523,-9.02343 -5.86468,-6.73835 -9.5778,-12.73471 -9.57813,-25.0293 0.0127,-21.98331 12.34457,-37.5 33.87305,-37.5 h 38.1582 19.07813 9.54101 c 6.03699,0 9.40703,-4.78306 9.09571,-8.76367 -0.22375,-2.86099 -0.72795,-5.72181 -1.29883,-8.51172 -1.14175,-5.57981 -2.82551,-10.96051 -4.99414,-16.08789 -4.33724,-10.25477 -10.61174,-19.49041 -18.36719,-27.2461 -7.75544,-7.75569 -16.99151,-14.03171 -27.24609,-18.36914 -5.12729,-2.16872 -10.5101,-3.85234 -16.08985,-4.99414 -1.39494,-0.28545 -2.80844,-0.53865 -4.23047,-0.75586 -1.42202,-0.21721 -2.86404,-0.28786 -4.27929,-0.54297 0,0 -0.13732,-0.008 -0.37696,0 z m 34.82618,29.55665 a 16.785714,16.785714 0 0 1 16.78711,16.78515 16.785714,16.785714 0 0 1 -16.78711,16.78516 A 16.785714,16.785714 0 0 1 450,165.01953 16.785714,16.785714 0 0 1 466.78516,148.23438 Z m -4,6.42773 a 5.1785709,5.1785709 0 0 0 -5.17774,5.17969 5.1785709,5.1785709 0 0 0 5.17774,5.17773 5.1785709,5.1785709 0 0 0 5.17968,-5.17773 5.1785709,5.1785709 0 0 0 -5.17968,-5.17969 z m -36.625,69.43164 c -1.62396,0.68495 -2.73805,1.67618 -3.80664,2.90234 -2.1289,2.44278 -4.34752,8.10654 -4.16993,14.45118 0.17759,6.34464 1.9258,8.45183 3.79883,10.80273 1.29016,1.61932 3.32336,2.74825 3.8418,3.10742 h 51.41992 v 7.99414 7.9961 7.99414 c 0,6.13744 6.32128,7.95647 9.38672,4.46484 1.65719,-1.8876 6.48047,-8.32812 6.48047,-8.32812 l 4.65039,-5.92774 4.65039,-5.92969 4.65234,-5.92968 4.65039,-5.92774 c 0,0 3.36572,-3.77123 4.65039,-5.92969 1.10151,-1.85071 2.6434,-3.77735 2.56641,-5.92968 -0.10621,-2.96909 -1.60899,-4.01549 -4.11719,-7.90625 -1.81452,-2.81471 -6.19922,-7.9043 -6.19922,-7.9043 h -24.80468 z"
       transform="scale(0.26458333)"
       id="path12"
       inkscape:connector-curvature="0" />
  </g>
</svg>
